<svg width="57" height="57" viewBox="0 0 57 57" fill="none" xmlns="http://www.w3.org/2000/svg">
<path d="M52.8754 28.7092C52.8754 26.881 52.7113 25.1231 52.4066 23.4355H28.1243V33.4204H41.9999C41.3905 36.6315 39.5623 39.3503 36.82 41.1786V47.671H45.1876C50.0628 43.1708 52.8754 36.5612 52.8754 28.7092Z" fill="#4285F4"/>
<path d="M28.1217 53.9053C35.0829 53.9053 40.9191 51.6083 45.1849 47.6706L36.8174 41.1781C34.5204 42.7251 31.5906 43.6626 28.1217 43.6626C21.4182 43.6626 15.7227 39.139 13.6835 33.0449H5.10498V39.7015C9.34736 48.1159 18.0431 53.9053 28.1217 53.9053Z" fill="#34A853"/>
<path d="M13.6845 33.0242C13.1688 31.4773 12.8641 29.8365 12.8641 28.1255C12.8641 26.4145 13.1688 24.7738 13.6845 23.2269V16.5703H5.10596C3.34807 20.0392 2.34021 23.9535 2.34021 28.1255C2.34021 32.2976 3.34807 36.2118 5.10596 39.6808L11.786 34.4774L13.6845 33.0242Z" fill="#FBBC05"/>
<path d="M28.1217 12.6079C31.9187 12.6079 35.2939 13.9205 37.9893 16.4518L45.3725 9.06867C40.8957 4.8966 35.0829 2.3418 28.1217 2.3418C18.0431 2.3418 9.34736 8.13113 5.10498 16.569L13.6835 23.2256C15.7227 17.1315 21.4182 12.6079 28.1217 12.6079Z" fill="#EA4335"/>
</svg>
