<svg width="16" height="16" viewBox="0 0 16 16" fill="none" xmlns="http://www.w3.org/2000/svg">
<g clip-path="url(#clip0_977_15786)">
<path d="M4.58772 5.58268H1.90771V13.644H4.58772V5.58268Z" fill="white"/>
<path d="M3.266 1.69596C2.34909 1.69596 1.75 2.29878 1.75 3.08887C1.75 3.86237 2.33087 4.48181 3.23053 4.48181H3.24784C4.18231 4.48181 4.76397 3.86237 4.76397 3.08887C4.74662 2.29878 4.18237 1.69596 3.266 1.69596Z" fill="white"/>
<path d="M11.165 5.39323C9.74343 5.39323 9.10668 6.17501 8.75011 6.72414V5.58279H6.0708C6.10633 6.33895 6.0708 13.6441 6.0708 13.6441H8.75008V9.14207C8.75008 8.9011 8.7674 8.6602 8.83843 8.48798C9.0318 8.00673 9.47296 7.50823 10.2132 7.50823C11.1823 7.50823 11.5706 8.24773 11.5706 9.33095V13.6441H14.25V9.02126C14.25 6.5451 12.928 5.39323 11.165 5.39323Z" fill="white"/>
</g>
<defs>
<clipPath id="clip0_977_15786">
<rect width="16" height="16" fill="white"/>
</clipPath>
</defs>
</svg>
