<svg width="25" height="25" viewBox="0 0 25 25" fill="none" xmlns="http://www.w3.org/2000/svg">
<path d="M11.3506 1.56121C11.6691 0.920203 12.5835 0.920203 12.902 1.56121L15.5031 6.79632C15.6292 7.05016 15.8715 7.22623 16.1519 7.26774L21.9346 8.12378C22.6426 8.22859 22.9252 9.09825 22.414 9.59924L18.2389 13.6907C18.0364 13.8891 17.9439 14.174 17.991 14.4535L18.9638 20.2177C19.083 20.9235 18.3432 21.461 17.7087 21.1296L12.5273 18.4232C12.2761 18.2919 11.9765 18.2919 11.7253 18.4232L6.54385 21.1296C5.90941 21.461 5.16963 20.9235 5.28875 20.2177L6.26155 14.4535C6.30871 14.174 6.21615 13.8891 6.01371 13.6907L1.8386 9.59924C1.32738 9.09825 1.60995 8.22859 2.31801 8.12378L8.10067 7.26774C8.38106 7.22623 8.6234 7.05016 8.74952 6.79632L11.3506 1.56121Z" fill="#FFB234"/>
</svg>
