<svg width="16" height="16" viewBox="0 0 16 16" fill="none" xmlns="http://www.w3.org/2000/svg">
<path d="M4.43206 13.4643L4.67281 13.607C5.68445 14.2073 6.84427 14.5248 8.02697 14.5254H8.02956C11.6617 14.5254 14.6179 11.5699 14.6195 7.93745C14.62 6.17706 13.9353 4.52178 12.6911 3.27661C11.4467 2.03149 9.79234 1.34534 8.03203 1.34462C4.39697 1.34462 1.44083 4.29973 1.43939 7.93209C1.4389 9.17683 1.78716 10.3891 2.44688 11.438L2.60373 11.6872L1.93781 14.1182L4.43206 13.4643ZM0.0341797 16.0013L1.15902 11.8942C0.465239 10.6921 0.100213 9.32852 0.100745 7.93155C0.102494 3.56135 3.65912 0.00585938 8.02956 0.00585938C10.1504 0.00677175 12.1411 0.832244 13.6381 2.33033C15.1349 3.82852 15.959 5.81997 15.9583 7.93798C15.9564 12.308 12.3993 15.8641 8.02956 15.8641C8.02925 15.8641 8.02975 15.8641 8.02956 15.8641H8.02614C6.69928 15.8636 5.39538 15.5308 4.23734 14.8992L0.0341797 16.0013Z" fill="white"/>
<path d="M0.368814 7.92458C0.368814 9.28345 0.723974 10.596 1.40341 11.7541L0.307046 15.7227L4.36822 14.6572C5.48003 15.2748 6.74625 15.5837 8.02791 15.5837C12.2435 15.5837 15.687 12.1556 15.687 7.94002C15.687 5.88627 14.884 3.9715 13.448 2.51998C11.9964 1.08389 10.0817 0.280925 8.02791 0.280925C3.81232 0.280925 0.368814 3.70899 0.368814 7.92458Z" fill="url(#paint0_linear_977_15791)"/>
<path d="M0.0948973 7.91838C0.0948973 9.32598 0.462793 10.6856 1.16659 11.8853L0.0309153 15.9961L4.23772 14.8924C5.3894 15.5322 6.70103 15.8521 8.02865 15.8521C12.3954 15.8521 15.9624 12.3011 15.9624 7.93438C15.9624 5.80698 15.1306 3.82354 13.6431 2.31997C12.1395 0.832389 10.156 0.000624657 8.02865 0.000624657C3.66189 0.000624657 0.0948973 3.55162 0.0948973 7.91838ZM2.60618 11.6773L2.44623 11.4374C1.79042 10.3817 1.43852 9.16603 1.43852 7.93438C1.43852 4.28741 4.39768 1.34424 8.02865 1.34424C9.78815 1.34424 11.4517 2.03205 12.6833 3.2637C13.931 4.51135 14.6188 6.17488 14.6188 7.93438C14.6188 11.5653 11.6596 14.5245 8.02865 14.5245C6.84499 14.5245 5.67732 14.2046 4.6696 13.5968L4.42967 13.4528L1.93438 14.1086L2.60618 11.6773Z" fill="url(#paint1_linear_977_15791)"/>
<path fill-rule="evenodd" clip-rule="evenodd" d="M6.04767 4.62037C5.89926 4.29047 5.74305 4.28386 5.60186 4.27808C5.48641 4.27314 5.35419 4.27344 5.2222 4.27344C5.09013 4.27344 4.87546 4.32305 4.69397 4.5213C4.51233 4.71955 4.00049 5.19878 4.00049 6.17346C4.00049 7.14826 4.71047 8.0901 4.80942 8.22239C4.90849 8.3545 6.17996 10.4186 8.19362 11.2127C9.86714 11.8726 10.2077 11.7414 10.5709 11.7084C10.9342 11.6753 11.743 11.2292 11.9081 10.7666C12.0732 10.3041 12.0732 9.90759 12.0237 9.82472C11.9742 9.74215 11.8421 9.69261 11.644 9.59354C11.4458 9.49447 10.4719 9.01513 10.2902 8.9491C10.1086 8.88307 9.97651 8.85003 9.84445 9.04836C9.71234 9.2465 9.33291 9.69261 9.2173 9.82472C9.10173 9.95712 8.98617 9.97362 8.78803 9.87456C8.58989 9.77518 7.95184 9.56621 7.19491 8.89132C6.60597 8.36625 6.20836 7.71777 6.09276 7.51945C5.97719 7.32131 6.0804 7.21399 6.17977 7.11523C6.26873 7.02646 6.37791 6.88398 6.47698 6.76829C6.57582 6.65261 6.60886 6.57004 6.67489 6.43794C6.74092 6.30564 6.70793 6.18996 6.65839 6.09089C6.60886 5.99183 6.22383 5.01209 6.04767 4.62037Z" fill="white"/>
<defs>
<linearGradient id="paint0_linear_977_15791" x1="7.99618" y1="15.7227" x2="7.99618" y2="0.280925" gradientUnits="userSpaceOnUse">
<stop stop-color="#20B038"/>
<stop offset="1" stop-color="#60D66A"/>
</linearGradient>
<linearGradient id="paint1_linear_977_15791" x1="7.99595" y1="15.9961" x2="7.99595" y2="0.000624657" gradientUnits="userSpaceOnUse">
<stop stop-color="#F9F9F9"/>
<stop offset="1" stop-color="white"/>
</linearGradient>
</defs>
</svg>
